<svg xmlns="http://www.w3.org/2000/svg" xmlns:xlink="http://www.w3.org/1999/xlink" width="500" zoomAndPan="magnify" viewBox="0 0 375 374.999991" height="500" preserveAspectRatio="xMidYMid meet" version="1.0"><defs><g/></defs><g fill="#000000" fill-opacity="1"><g transform="translate(117.445309, 209.387228)"><g><path d="M 35.90625 -62.484375 C 40.25 -62.484375 44.335938 -61.660156 48.171875 -60.015625 C 52.015625 -58.367188 55.40625 -56.078125 58.34375 -53.140625 C 61.28125 -50.210938 63.566406 -46.828125 65.203125 -42.984375 C 66.847656 -39.140625 67.671875 -35.019531 67.671875 -30.625 C 67.671875 -26.28125 66.847656 -22.1875 65.203125 -18.34375 C 63.566406 -14.5 61.28125 -11.109375 58.34375 -8.171875 C 55.40625 -5.242188 52.015625 -2.957031 48.171875 -1.3125 C 44.335938 0.320312 40.25 1.140625 35.90625 1.140625 C 31.5 1.140625 27.375 0.320312 23.53125 -1.3125 C 19.695312 -2.957031 16.3125 -5.242188 13.375 -8.171875 C 10.4375 -11.109375 8.144531 -14.5 6.5 -18.34375 C 4.863281 -22.1875 4.046875 -26.28125 4.046875 -30.625 C 4.046875 -35.019531 4.863281 -39.140625 6.5 -42.984375 C 8.144531 -46.828125 10.4375 -50.210938 13.375 -53.140625 C 16.3125 -56.078125 19.695312 -58.367188 23.53125 -60.015625 C 27.375 -61.660156 31.5 -62.484375 35.90625 -62.484375 Z M 35.90625 -62.046875 C 32.5 -62.046875 29.3125 -61.222656 26.34375 -59.578125 C 23.382812 -57.929688 20.789062 -55.671875 18.5625 -52.796875 C 16.332031 -49.921875 14.570312 -46.59375 13.28125 -42.8125 C 12 -39.03125 11.359375 -34.96875 11.359375 -30.625 C 11.359375 -26.34375 12 -22.304688 13.28125 -18.515625 C 14.570312 -14.734375 16.332031 -11.40625 18.5625 -8.53125 C 20.789062 -5.65625 23.382812 -3.394531 26.34375 -1.75 C 29.3125 -0.113281 32.5 0.703125 35.90625 0.703125 C 39.25 0.703125 42.398438 -0.113281 45.359375 -1.75 C 48.328125 -3.394531 50.9375 -5.65625 53.1875 -8.53125 C 55.445312 -11.40625 57.207031 -14.734375 58.46875 -18.515625 C 59.738281 -22.304688 60.375 -26.34375 60.375 -30.625 C 60.375 -34.96875 59.738281 -39.03125 58.46875 -42.8125 C 57.207031 -46.59375 55.445312 -49.921875 53.1875 -52.796875 C 50.9375 -55.671875 48.328125 -57.929688 45.359375 -59.578125 C 42.398438 -61.222656 39.25 -62.046875 35.90625 -62.046875 Z M 35.90625 -62.046875 "/></g></g></g><g fill="#000000" fill-opacity="1"><g transform="translate(189.250149, 209.387228)"><g><path d="M 65.390625 -27.625 C 65.328125 -27.570312 65.296875 -27.546875 65.296875 -27.546875 C 65.296875 -27.484375 65.265625 -27.453125 65.203125 -27.453125 C 65.148438 -27.453125 65.125 -27.453125 65.125 -27.453125 C 65.0625 -27.453125 65 -27.453125 64.9375 -27.453125 C 64.882812 -27.453125 64.859375 -27.453125 64.859375 -27.453125 C 63.628906 -27.335938 62.601562 -26.851562 61.78125 -26 C 60.957031 -25.15625 60.546875 -24.113281 60.546875 -22.875 L 60.546875 -10.734375 C 60.546875 -10.671875 60.546875 -10.640625 60.546875 -10.640625 C 60.546875 -10.585938 60.546875 -10.5625 60.546875 -10.5625 C 58.898438 -8.5625 57.050781 -6.769531 55 -5.1875 C 54.9375 -5.1875 54.90625 -5.1875 54.90625 -5.1875 C 49.457031 -1.082031 43.328125 1.023438 36.515625 1.140625 L 36.34375 1.140625 C 36.226562 1.140625 36.082031 1.140625 35.90625 1.140625 C 35.726562 1.140625 35.519531 1.140625 35.28125 1.140625 C 31.125 1.085938 27.125 0.238281 23.28125 -1.40625 C 19.4375 -3.050781 16.078125 -5.367188 13.203125 -8.359375 C 10.265625 -11.347656 8.003906 -14.765625 6.421875 -18.609375 C 4.835938 -22.453125 4.046875 -26.457031 4.046875 -30.625 C 4.046875 -34.789062 4.835938 -38.804688 6.421875 -42.671875 C 8.003906 -46.546875 10.265625 -49.976562 13.203125 -52.96875 C 16.078125 -55.90625 19.421875 -58.207031 23.234375 -59.875 C 27.046875 -61.550781 31.035156 -62.421875 35.203125 -62.484375 L 35.46875 -62.484375 C 35.582031 -62.484375 35.726562 -62.484375 35.90625 -62.484375 C 36.019531 -62.484375 36.222656 -62.484375 36.515625 -62.484375 C 41.148438 -62.359375 45.566406 -61.285156 49.765625 -59.265625 C 53.960938 -57.242188 57.554688 -54.414062 60.546875 -50.78125 C 60.597656 -50.71875 60.597656 -50.628906 60.546875 -50.515625 L 58.25 -44.4375 C 58.25 -44.382812 58.191406 -44.359375 58.078125 -44.359375 C 57.960938 -44.359375 57.875 -44.382812 57.8125 -44.4375 C 55.820312 -49.71875 52.921875 -53.925781 49.109375 -57.0625 C 45.296875 -60.207031 41.097656 -61.867188 36.515625 -62.046875 L 36.34375 -62.046875 C 36.226562 -62.046875 36.082031 -62.046875 35.90625 -62.046875 C 35.726562 -62.046875 35.519531 -62.046875 35.28125 -62.046875 C 32.0625 -61.921875 29 -61.035156 26.09375 -59.390625 C 23.1875 -57.753906 20.617188 -55.46875 18.390625 -52.53125 C 16.097656 -49.601562 14.351562 -46.257812 13.15625 -42.5 C 11.957031 -38.75 11.359375 -34.789062 11.359375 -30.625 C 11.359375 -26.519531 11.957031 -22.570312 13.15625 -18.78125 C 14.351562 -15 16.097656 -11.644531 18.390625 -8.71875 C 20.617188 -5.78125 23.1875 -3.503906 26.09375 -1.890625 C 29 -0.273438 32.035156 0.585938 35.203125 0.703125 L 35.375 0.703125 C 35.613281 0.703125 35.789062 0.703125 35.90625 0.703125 C 35.957031 0.703125 36.039062 0.703125 36.15625 0.703125 C 36.28125 0.703125 36.375 0.703125 36.4375 0.703125 C 40.007812 0.585938 43.363281 -0.453125 46.5 -2.421875 C 49.644531 -4.390625 52.332031 -7.046875 54.5625 -10.390625 L 54.5625 -17.34375 C 54.5625 -19.6875 55.25 -21.78125 56.625 -23.625 C 58.007812 -25.476562 59.816406 -26.753906 62.046875 -27.453125 L 49.984375 -27.453125 C 49.867188 -27.453125 49.8125 -27.539062 49.8125 -27.71875 C 49.8125 -27.832031 49.867188 -27.890625 49.984375 -27.890625 L 65.125 -27.890625 C 65.175781 -27.890625 65.234375 -27.890625 65.296875 -27.890625 C 65.359375 -27.835938 65.390625 -27.78125 65.390625 -27.71875 C 65.390625 -27.65625 65.390625 -27.625 65.390625 -27.625 Z M 65.390625 -27.625 "/></g></g></g><g fill="#000000" fill-opacity="1"><g transform="translate(147.039077, 238.430728)"><g><path d="M 1.09375 0 C 0.925781 0 0.769531 0.0078125 0.625 0.03125 C 0.476562 0.0625 0.320312 0.078125 0.15625 0.078125 C -0.0078125 0.078125 -0.09375 0.0234375 -0.09375 -0.078125 C -0.09375 -0.191406 -0.0195312 -0.25 0.125 -0.25 C 0.289062 -0.25 0.40625 -0.28125 0.46875 -0.34375 C 0.582031 -0.445312 0.691406 -0.609375 0.796875 -0.828125 C 0.910156 -1.054688 1.007812 -1.269531 1.09375 -1.46875 C 1.1875 -1.664062 1.296875 -1.894531 1.421875 -2.15625 C 1.546875 -2.425781 1.675781 -2.722656 1.8125 -3.046875 C 1.957031 -3.378906 2.113281 -3.734375 2.28125 -4.109375 C 2.695312 -5.066406 2.96875 -5.710938 3.09375 -6.046875 C 3.226562 -6.378906 3.300781 -6.5625 3.3125 -6.59375 C 3.332031 -6.632812 3.351562 -6.671875 3.375 -6.703125 C 3.414062 -6.773438 3.445312 -6.8125 3.46875 -6.8125 C 3.5 -6.8125 3.523438 -6.804688 3.546875 -6.796875 C 3.566406 -6.785156 3.585938 -6.769531 3.609375 -6.75 C 3.660156 -6.6875 3.707031 -6.59375 3.75 -6.46875 C 3.800781 -6.351562 3.867188 -6.191406 3.953125 -5.984375 C 4.035156 -5.773438 4.128906 -5.535156 4.234375 -5.265625 C 4.347656 -5.003906 4.460938 -4.722656 4.578125 -4.421875 C 4.703125 -4.117188 4.820312 -3.816406 4.9375 -3.515625 C 5.0625 -3.210938 5.179688 -2.921875 5.296875 -2.640625 C 5.421875 -2.359375 5.523438 -2.101562 5.609375 -1.875 C 5.890625 -1.1875 6.066406 -0.773438 6.140625 -0.640625 C 6.222656 -0.515625 6.289062 -0.425781 6.34375 -0.375 C 6.425781 -0.289062 6.546875 -0.25 6.703125 -0.25 C 6.867188 -0.25 6.953125 -0.191406 6.953125 -0.078125 C 6.953125 0.0234375 6.847656 0.078125 6.640625 0.078125 C 6.554688 0.078125 6.476562 0.0703125 6.40625 0.0625 C 6.34375 0.0507812 6.28125 0.046875 6.21875 0.046875 C 6.03125 0.015625 5.863281 0 5.71875 0 L 4.78125 0.078125 C 4.5625 0.078125 4.453125 0.015625 4.453125 -0.109375 C 4.453125 -0.203125 4.515625 -0.25 4.640625 -0.25 L 4.921875 -0.21875 C 5.046875 -0.21875 5.128906 -0.242188 5.171875 -0.296875 C 5.210938 -0.347656 5.234375 -0.414062 5.234375 -0.5 C 5.234375 -0.65625 5.164062 -0.894531 5.03125 -1.21875 L 4.625 -2.234375 L 1.921875 -2.234375 C 1.835938 -2.035156 1.765625 -1.851562 1.703125 -1.6875 C 1.640625 -1.53125 1.578125 -1.375 1.515625 -1.21875 C 1.429688 -0.96875 1.390625 -0.769531 1.390625 -0.625 C 1.390625 -0.488281 1.410156 -0.382812 1.453125 -0.3125 C 1.503906 -0.25 1.601562 -0.21875 1.75 -0.21875 L 2.046875 -0.25 C 2.160156 -0.25 2.21875 -0.203125 2.21875 -0.109375 C 2.21875 0.015625 2.113281 0.078125 1.90625 0.078125 Z M 4.46875 -2.640625 L 3.296875 -5.5625 C 3.078125 -4.988281 2.675781 -4.015625 2.09375 -2.640625 Z M 4.46875 -2.640625 "/></g></g></g><g fill="#000000" fill-opacity="1"><g transform="translate(161.93584, 238.430728)"><g><path d="M 6.859375 -3.109375 C 6.992188 -3.109375 7.0625 -3.0625 7.0625 -2.96875 C 7.0625 -2.925781 7.046875 -2.890625 7.015625 -2.859375 C 6.984375 -2.835938 6.9375 -2.816406 6.875 -2.796875 C 6.820312 -2.773438 6.78125 -2.742188 6.75 -2.703125 C 6.71875 -2.660156 6.691406 -2.601562 6.671875 -2.53125 C 6.640625 -2.382812 6.625 -2.210938 6.625 -2.015625 C 6.625 -1.816406 6.625 -1.6875 6.625 -1.625 C 6.625 -1.5625 6.628906 -1.492188 6.640625 -1.421875 C 6.660156 -1.179688 6.675781 -1.023438 6.6875 -0.953125 C 6.707031 -0.878906 6.71875 -0.804688 6.71875 -0.734375 C 6.71875 -0.671875 6.671875 -0.597656 6.578125 -0.515625 C 6.492188 -0.441406 6.382812 -0.367188 6.25 -0.296875 C 6.113281 -0.234375 5.953125 -0.175781 5.765625 -0.125 C 5.585938 -0.0703125 5.398438 -0.0234375 5.203125 0.015625 C 4.796875 0.0976562 4.425781 0.140625 4.09375 0.140625 C 2.925781 0.140625 2.003906 -0.191406 1.328125 -0.859375 C 0.710938 -1.472656 0.40625 -2.25 0.40625 -3.1875 C 0.40625 -4.238281 0.742188 -5.082031 1.421875 -5.71875 C 2.109375 -6.363281 3.019531 -6.6875 4.15625 -6.6875 C 5 -6.6875 5.664062 -6.582031 6.15625 -6.375 C 6.257812 -6.332031 6.328125 -6.289062 6.359375 -6.25 C 6.429688 -6.15625 6.472656 -6.015625 6.484375 -5.828125 C 6.492188 -5.648438 6.5 -5.523438 6.5 -5.453125 C 6.519531 -5.285156 6.53125 -5.179688 6.53125 -5.140625 C 6.53125 -5.015625 6.484375 -4.953125 6.390625 -4.953125 C 6.304688 -4.953125 6.238281 -5.03125 6.1875 -5.1875 C 6.144531 -5.351562 6.050781 -5.507812 5.90625 -5.65625 C 5.769531 -5.800781 5.601562 -5.921875 5.40625 -6.015625 C 5.019531 -6.210938 4.585938 -6.3125 4.109375 -6.3125 C 3.640625 -6.3125 3.238281 -6.242188 2.90625 -6.109375 C 2.570312 -5.984375 2.289062 -5.800781 2.0625 -5.5625 C 1.570312 -5.0625 1.328125 -4.382812 1.328125 -3.53125 C 1.328125 -2.613281 1.609375 -1.84375 2.171875 -1.21875 C 2.429688 -0.914062 2.742188 -0.679688 3.109375 -0.515625 C 3.472656 -0.347656 3.867188 -0.265625 4.296875 -0.265625 C 4.972656 -0.265625 5.414062 -0.390625 5.625 -0.640625 C 5.757812 -0.816406 5.828125 -1.050781 5.828125 -1.34375 L 5.828125 -2.390625 C 5.828125 -2.546875 5.789062 -2.644531 5.71875 -2.6875 C 5.625 -2.726562 5.492188 -2.75 5.328125 -2.75 C 5.046875 -2.75 4.90625 -2.8125 4.90625 -2.9375 C 4.90625 -3.0625 5.019531 -3.125 5.25 -3.125 L 6.21875 -3.0625 Z M 6.859375 -3.109375 "/></g></g></g><g fill="#000000" fill-opacity="1"><g transform="translate(177.325569, 238.430728)"><g><path d="M 0.59375 0.078125 C 0.40625 0.078125 0.3125 0.015625 0.3125 -0.109375 C 0.3125 -0.203125 0.375 -0.25 0.5 -0.25 L 0.734375 -0.21875 C 0.910156 -0.21875 1.035156 -0.296875 1.109375 -0.453125 C 1.179688 -0.640625 1.21875 -1 1.21875 -1.53125 L 1.21875 -5 C 1.21875 -5.53125 1.191406 -5.863281 1.140625 -6 C 1.085938 -6.144531 1.03125 -6.234375 0.96875 -6.265625 C 0.90625 -6.296875 0.828125 -6.3125 0.734375 -6.3125 L 0.5 -6.296875 C 0.375 -6.296875 0.3125 -6.34375 0.3125 -6.4375 C 0.3125 -6.5625 0.398438 -6.625 0.578125 -6.625 C 0.753906 -6.625 0.894531 -6.617188 1 -6.609375 C 1.113281 -6.597656 1.226562 -6.585938 1.34375 -6.578125 C 1.644531 -6.554688 1.882812 -6.546875 2.0625 -6.546875 C 2.238281 -6.546875 2.421875 -6.546875 2.609375 -6.546875 C 2.804688 -6.554688 3.023438 -6.566406 3.265625 -6.578125 C 3.898438 -6.609375 4.34375 -6.625 4.59375 -6.625 C 4.84375 -6.625 4.976562 -6.609375 5 -6.578125 C 5.03125 -6.546875 5.046875 -6.503906 5.046875 -6.453125 C 5.046875 -6.398438 5.046875 -6.351562 5.046875 -6.3125 C 5.046875 -6.269531 5.039062 -6.21875 5.03125 -6.15625 C 5.03125 -6.082031 5.019531 -5.972656 5 -5.828125 C 4.988281 -5.679688 4.96875 -5.582031 4.9375 -5.53125 C 4.914062 -5.476562 4.882812 -5.453125 4.84375 -5.453125 C 4.800781 -5.453125 4.769531 -5.460938 4.75 -5.484375 C 4.738281 -5.503906 4.71875 -5.550781 4.6875 -5.625 C 4.664062 -5.707031 4.617188 -5.78125 4.546875 -5.84375 C 4.472656 -5.914062 4.363281 -5.976562 4.21875 -6.03125 C 3.925781 -6.113281 3.382812 -6.15625 2.59375 -6.15625 L 2.15625 -6.15625 C 2.082031 -6.15625 2.035156 -6.144531 2.015625 -6.125 C 1.992188 -6.101562 1.984375 -6.050781 1.984375 -5.96875 L 1.984375 -3.90625 C 2.367188 -3.863281 2.6875 -3.84375 2.9375 -3.84375 C 3.195312 -3.84375 3.378906 -3.84375 3.484375 -3.84375 C 3.597656 -3.851562 3.691406 -3.863281 3.765625 -3.875 C 3.890625 -3.894531 3.976562 -3.953125 4.03125 -4.046875 C 4.144531 -4.222656 4.234375 -4.3125 4.296875 -4.3125 C 4.390625 -4.3125 4.4375 -4.265625 4.4375 -4.171875 L 4.265625 -3.484375 L 4.28125 -3.109375 C 4.28125 -2.867188 4.222656 -2.75 4.109375 -2.75 C 4.015625 -2.75 3.96875 -2.8125 3.96875 -2.9375 C 3.96875 -3.0625 3.960938 -3.15625 3.953125 -3.21875 C 3.941406 -3.28125 3.898438 -3.332031 3.828125 -3.375 C 3.722656 -3.425781 3.46875 -3.453125 3.0625 -3.453125 C 2.664062 -3.453125 2.304688 -3.429688 1.984375 -3.390625 L 1.984375 -2.234375 C 1.984375 -1.515625 2 -0.921875 2.03125 -0.453125 C 2.289062 -0.390625 2.570312 -0.359375 2.875 -0.359375 C 3.1875 -0.359375 3.453125 -0.367188 3.671875 -0.390625 C 3.898438 -0.410156 4.09375 -0.441406 4.25 -0.484375 C 4.5625 -0.578125 4.796875 -0.757812 4.953125 -1.03125 C 5.015625 -1.144531 5.078125 -1.203125 5.140625 -1.203125 C 5.203125 -1.203125 5.234375 -1.15625 5.234375 -1.0625 C 5.234375 -1.019531 5.222656 -0.96875 5.203125 -0.90625 C 5.179688 -0.820312 5.144531 -0.695312 5.09375 -0.53125 C 5.039062 -0.363281 5 -0.242188 4.96875 -0.171875 C 4.945312 -0.0976562 4.921875 -0.0390625 4.890625 0 C 4.835938 0.0625 4.738281 0.09375 4.59375 0.09375 C 4.457031 0.09375 4.320312 0.09375 4.1875 0.09375 C 4.050781 0.09375 3.910156 0.09375 3.765625 0.09375 C 3.597656 0.0820312 3.335938 0.0664062 2.984375 0.046875 C 2.097656 0.00390625 1.578125 -0.0078125 1.421875 0 C 1.273438 0.0195312 1.160156 0.03125 1.078125 0.03125 C 1.003906 0.0390625 0.925781 0.0507812 0.84375 0.0625 C 0.769531 0.0703125 0.6875 0.078125 0.59375 0.078125 Z M 0.59375 0.078125 "/></g></g></g><g fill="#000000" fill-opacity="1"><g transform="translate(190.953299, 238.430728)"><g><path d="M 0.671875 0.078125 C 0.453125 0.078125 0.34375 0.015625 0.34375 -0.109375 C 0.34375 -0.203125 0.398438 -0.25 0.515625 -0.25 L 0.765625 -0.21875 C 0.960938 -0.21875 1.09375 -0.328125 1.15625 -0.546875 C 1.207031 -0.734375 1.234375 -1.066406 1.234375 -1.546875 L 1.234375 -4.984375 C 1.234375 -5.460938 1.210938 -5.773438 1.171875 -5.921875 C 1.128906 -6.066406 1.070312 -6.164062 1 -6.21875 C 0.9375 -6.269531 0.859375 -6.296875 0.765625 -6.296875 L 0.515625 -6.28125 C 0.398438 -6.28125 0.34375 -6.328125 0.34375 -6.421875 C 0.34375 -6.546875 0.453125 -6.609375 0.671875 -6.609375 L 1.296875 -6.546875 C 1.441406 -6.546875 1.566406 -6.554688 1.671875 -6.578125 L 6.171875 -1.34375 L 6.171875 -5 C 6.171875 -5.46875 6.144531 -5.773438 6.09375 -5.921875 C 6.039062 -6.078125 5.984375 -6.179688 5.921875 -6.234375 C 5.859375 -6.285156 5.773438 -6.3125 5.671875 -6.3125 L 5.421875 -6.296875 C 5.304688 -6.296875 5.25 -6.34375 5.25 -6.4375 C 5.25 -6.5625 5.351562 -6.625 5.5625 -6.625 C 5.644531 -6.625 5.753906 -6.613281 5.890625 -6.59375 C 6.066406 -6.5625 6.222656 -6.546875 6.359375 -6.546875 C 6.503906 -6.546875 6.640625 -6.554688 6.765625 -6.578125 C 6.898438 -6.609375 7.054688 -6.625 7.234375 -6.625 C 7.421875 -6.625 7.515625 -6.5625 7.515625 -6.4375 C 7.515625 -6.34375 7.453125 -6.296875 7.328125 -6.296875 L 7.09375 -6.3125 C 6.894531 -6.3125 6.765625 -6.203125 6.703125 -5.984375 C 6.640625 -5.816406 6.609375 -5.488281 6.609375 -5 L 6.609375 -0.0625 C 6.609375 0.0507812 6.597656 0.125 6.578125 0.15625 C 6.566406 0.1875 6.539062 0.203125 6.5 0.203125 C 6.4375 0.203125 6.34375 0.132812 6.21875 0 L 1.71875 -5.203125 L 1.71875 -1.546875 C 1.71875 -1.054688 1.738281 -0.738281 1.78125 -0.59375 C 1.820312 -0.457031 1.875 -0.359375 1.9375 -0.296875 C 2 -0.242188 2.082031 -0.21875 2.1875 -0.21875 L 2.421875 -0.25 C 2.546875 -0.25 2.609375 -0.203125 2.609375 -0.109375 C 2.609375 0.015625 2.515625 0.078125 2.328125 0.078125 C 2.140625 0.078125 1.972656 0.0625 1.828125 0.03125 C 1.679688 0.0078125 1.539062 0 1.40625 0 C 1.269531 0 1.132812 0.0078125 1 0.03125 C 0.863281 0.0625 0.753906 0.078125 0.671875 0.078125 Z M 0.671875 0.078125 "/></g></g></g><g fill="#000000" fill-opacity="1"><g transform="translate(206.543149, 238.430728)"><g><path d="M 6.6875 -5.125 C 6.6875 -5 6.640625 -4.9375 6.546875 -4.9375 C 6.472656 -4.9375 6.410156 -5.015625 6.359375 -5.171875 C 6.304688 -5.335938 6.207031 -5.488281 6.0625 -5.625 C 5.925781 -5.757812 5.757812 -5.878906 5.5625 -5.984375 C 5.15625 -6.179688 4.71875 -6.28125 4.25 -6.28125 C 3.789062 -6.28125 3.390625 -6.21875 3.046875 -6.09375 C 2.703125 -5.96875 2.410156 -5.785156 2.171875 -5.546875 C 1.660156 -5.046875 1.40625 -4.375 1.40625 -3.53125 C 1.40625 -2.59375 1.691406 -1.820312 2.265625 -1.21875 C 2.835938 -0.601562 3.566406 -0.296875 4.453125 -0.296875 C 5.441406 -0.296875 6.207031 -0.753906 6.75 -1.671875 C 6.78125 -1.722656 6.816406 -1.753906 6.859375 -1.765625 C 6.898438 -1.765625 6.9375 -1.722656 6.96875 -1.640625 C 7 -1.566406 7.015625 -1.476562 7.015625 -1.375 C 7.015625 -1.21875 6.875 -1.007812 6.59375 -0.75 C 6.320312 -0.488281 5.988281 -0.273438 5.59375 -0.109375 C 5.195312 0.046875 4.734375 0.125 4.203125 0.125 C 3.679688 0.125 3.1875 0.0390625 2.71875 -0.125 C 2.25 -0.300781 1.851562 -0.535156 1.53125 -0.828125 C 0.832031 -1.453125 0.484375 -2.226562 0.484375 -3.15625 C 0.484375 -4.207031 0.832031 -5.050781 1.53125 -5.6875 C 2.226562 -6.34375 3.144531 -6.671875 4.28125 -6.671875 C 5.101562 -6.671875 5.78125 -6.5625 6.3125 -6.34375 C 6.414062 -6.289062 6.488281 -6.242188 6.53125 -6.203125 C 6.59375 -6.109375 6.628906 -5.972656 6.640625 -5.796875 C 6.648438 -5.617188 6.65625 -5.492188 6.65625 -5.421875 C 6.675781 -5.265625 6.6875 -5.164062 6.6875 -5.125 Z M 6.6875 -5.125 "/></g></g></g><g fill="#000000" fill-opacity="1"><g transform="translate(221.805973, 238.430728)"><g><path d="M 2.140625 0.078125 C 1.929688 0.078125 1.828125 0.015625 1.828125 -0.109375 C 1.828125 -0.203125 1.882812 -0.25 2 -0.25 L 2.234375 -0.21875 C 2.429688 -0.21875 2.5625 -0.328125 2.625 -0.546875 C 2.6875 -0.734375 2.71875 -1.066406 2.71875 -1.546875 L 2.71875 -3.25 L 1.171875 -5.53125 C 0.960938 -5.832031 0.816406 -6.019531 0.734375 -6.09375 C 0.597656 -6.21875 0.457031 -6.28125 0.3125 -6.28125 C 0.164062 -6.28125 0.09375 -6.335938 0.09375 -6.453125 C 0.09375 -6.492188 0.117188 -6.53125 0.171875 -6.5625 C 0.222656 -6.601562 0.304688 -6.625 0.421875 -6.625 C 0.535156 -6.625 0.65625 -6.609375 0.78125 -6.578125 C 0.90625 -6.554688 1.039062 -6.546875 1.1875 -6.546875 L 1.984375 -6.625 C 2.191406 -6.625 2.296875 -6.566406 2.296875 -6.453125 C 2.296875 -6.347656 2.203125 -6.296875 2.015625 -6.296875 C 1.835938 -6.296875 1.75 -6.238281 1.75 -6.125 C 1.75 -6.0625 1.804688 -5.9375 1.921875 -5.75 L 3.28125 -3.71875 L 4.3125 -5.359375 C 4.519531 -5.679688 4.628906 -5.878906 4.640625 -5.953125 C 4.660156 -6.023438 4.671875 -6.070312 4.671875 -6.09375 C 4.671875 -6.226562 4.566406 -6.296875 4.359375 -6.296875 C 4.160156 -6.296875 4.0625 -6.347656 4.0625 -6.453125 C 4.0625 -6.566406 4.171875 -6.625 4.390625 -6.625 C 4.503906 -6.625 4.613281 -6.609375 4.71875 -6.578125 C 4.832031 -6.554688 4.945312 -6.546875 5.0625 -6.546875 C 5.175781 -6.546875 5.285156 -6.554688 5.390625 -6.578125 C 5.492188 -6.609375 5.601562 -6.625 5.71875 -6.625 C 5.945312 -6.625 6.0625 -6.566406 6.0625 -6.453125 C 6.0625 -6.335938 5.984375 -6.28125 5.828125 -6.28125 C 5.671875 -6.28125 5.546875 -6.238281 5.453125 -6.15625 C 5.296875 -6.03125 5.101562 -5.785156 4.875 -5.421875 L 3.484375 -3.328125 L 3.484375 -1.546875 C 3.484375 -1.054688 3.503906 -0.738281 3.546875 -0.59375 C 3.585938 -0.457031 3.640625 -0.359375 3.703125 -0.296875 C 3.765625 -0.242188 3.847656 -0.21875 3.953125 -0.21875 L 4.1875 -0.25 C 4.3125 -0.25 4.375 -0.203125 4.375 -0.109375 C 4.375 0.015625 4.269531 0.078125 4.0625 0.078125 C 3.945312 0.078125 3.832031 0.0664062 3.71875 0.046875 C 3.320312 -0.015625 2.984375 -0.0234375 2.703125 0.015625 C 2.429688 0.0546875 2.242188 0.078125 2.140625 0.078125 Z M 2.140625 0.078125 "/></g></g></g></svg>